<svg xmlns="http://www.w3.org/2000/svg" viewBox="0 0 160 160">
  <rect width="160" height="160" rx="36" fill="#1e3a8a"/>
  <!-- left lobe -->
  <path d="M 50 48 C 35 44, 22 52, 20 66 C 18 78, 24 90, 34 96 C 28 104, 27 116, 35 124 C 43 132, 55 130, 63 124 C 68 130, 76 134, 85 132 L 85 48 C 74 44, 62 44, 50 48 Z" fill="white"/>
  <!-- right lobe -->
  <path d="M 110 48 C 125 44, 138 52, 140 66 C 142 78, 136 90, 126 96 C 132 104, 133 116, 125 124 C 117 132, 105 130, 97 124 C 92 130, 84 134, 75 132 L 75 48 C 86 44, 98 44, 110 48 Z" fill="white"/>
  <!-- center divide -->
  <line x1="80" y1="46" x2="80" y2="132" stroke="#1e3a8a" stroke-width="3"/>
  <!-- stem -->
  <rect x="70" y="130" width="20" height="14" rx="4" fill="white" opacity="0.85"/>
  <!-- left sulci -->
  <path d="M 38 65 C 44 60, 55 63, 60 72" fill="none" stroke="#93c5fd" stroke-width="2.5" stroke-linecap="round"/>
  <path d="M 32 85 C 40 79, 54 82, 60 92" fill="none" stroke="#93c5fd" stroke-width="2.5" stroke-linecap="round"/>
  <path d="M 34 106 C 42 100, 55 103, 60 112" fill="none" stroke="#93c5fd" stroke-width="2.5" stroke-linecap="round"/>
  <!-- right sulci -->
  <path d="M 122 65 C 116 60, 105 63, 100 72" fill="none" stroke="#93c5fd" stroke-width="2.5" stroke-linecap="round"/>
  <path d="M 128 85 C 120 79, 106 82, 100 92" fill="none" stroke="#93c5fd" stroke-width="2.5" stroke-linecap="round"/>
  <path d="M 126 106 C 118 100, 105 103, 100 112" fill="none" stroke="#93c5fd" stroke-width="2.5" stroke-linecap="round"/>
</svg>
