<svg width="100%" viewBox="0 0 680 340" role="img" style="" xmlns="http://www.w3.org/2000/svg">
  <title style="fill:rgb(0, 0, 0);stroke:none;color:rgb(255, 255, 255);stroke-width:1px;stroke-linecap:butt;stroke-linejoin:miter;opacity:1;font-family:&quot;Anthropic Sans&quot;, -apple-system, BlinkMacSystemFont, &quot;Segoe UI&quot;, sans-serif;font-size:16px;font-weight:400;text-anchor:start;dominant-baseline:auto">MindMate logo — detailed brain</title>
  <desc style="fill:rgb(0, 0, 0);stroke:none;color:rgb(255, 255, 255);stroke-width:1px;stroke-linecap:butt;stroke-linejoin:miter;opacity:1;font-family:&quot;Anthropic Sans&quot;, -apple-system, BlinkMacSystemFont, &quot;Segoe UI&quot;, sans-serif;font-size:16px;font-weight:400;text-anchor:start;dominant-baseline:auto">A circular badge with a detailed anatomical brain illustration in blue</desc>

  <circle cx="340" cy="155" r="115" fill="#1e3a8a" style="fill:rgb(30, 58, 138);stroke:none;color:rgb(255, 255, 255);stroke-width:1px;stroke-linecap:butt;stroke-linejoin:miter;opacity:1;font-family:&quot;Anthropic Sans&quot;, -apple-system, BlinkMacSystemFont, &quot;Segoe UI&quot;, sans-serif;font-size:16px;font-weight:400;text-anchor:start;dominant-baseline:auto"/>
  <circle cx="340" cy="155" r="110" fill="#1d4ed8" style="fill:rgb(29, 78, 216);stroke:none;color:rgb(255, 255, 255);stroke-width:1px;stroke-linecap:butt;stroke-linejoin:miter;opacity:1;font-family:&quot;Anthropic Sans&quot;, -apple-system, BlinkMacSystemFont, &quot;Segoe UI&quot;, sans-serif;font-size:16px;font-weight:400;text-anchor:start;dominant-baseline:auto"/>

  <!-- Main brain outline — proper brain shape with bumpy top -->
  <path d="&#10;    M 340 85&#10;    C 348 82, 360 84, 370 88&#10;    C 382 93, 390 98, 396 105&#10;    C 404 100, 415 102, 420 112&#10;    C 427 124, 424 138, 416 146&#10;    C 424 153, 427 165, 422 175&#10;    C 430 182, 432 195, 424 205&#10;    C 416 215, 403 216, 393 211&#10;    C 386 220, 373 226, 360 225&#10;    C 352 228, 344 228, 340 227&#10;    C 336 228, 328 228, 320 225&#10;    C 307 226, 294 220, 287 211&#10;    C 277 216, 264 215, 256 205&#10;    C 248 195, 250 182, 258 175&#10;    C 253 165, 256 153, 264 146&#10;    C 256 138, 253 124, 260 112&#10;    C 265 102, 276 100, 284 105&#10;    C 290 98, 298 93, 310 88&#10;    C 320 84, 332 82, 340 85 Z&#10;  " fill="#bfdbfe" opacity="0.95" style="fill:rgb(191, 219, 254);stroke:none;color:rgb(255, 255, 255);stroke-width:1px;stroke-linecap:butt;stroke-linejoin:miter;opacity:0.95;font-family:&quot;Anthropic Sans&quot;, -apple-system, BlinkMacSystemFont, &quot;Segoe UI&quot;, sans-serif;font-size:16px;font-weight:400;text-anchor:start;dominant-baseline:auto"/>

  <!-- Brain stem -->
  <path d="M 326 226 C 324 236, 323 244, 326 250 C 329 256, 351 256, 354 250 C 357 244, 356 236, 354 226 Z" fill="#93c5fd" opacity="0.9" style="fill:rgb(147, 197, 253);stroke:none;color:rgb(255, 255, 255);stroke-width:1px;stroke-linecap:butt;stroke-linejoin:miter;opacity:0.9;font-family:&quot;Anthropic Sans&quot;, -apple-system, BlinkMacSystemFont, &quot;Segoe UI&quot;, sans-serif;font-size:16px;font-weight:400;text-anchor:start;dominant-baseline:auto"/>

  <!-- Left gyrus 1 — top outer bump -->
  <path d="M 284 105 C 278 95, 268 93, 262 100 C 256 108, 258 120, 266 126 C 272 120, 280 116, 284 105 Z" fill="#93c5fd" opacity="0.8" style="fill:rgb(147, 197, 253);stroke:none;color:rgb(255, 255, 255);stroke-width:1px;stroke-linecap:butt;stroke-linejoin:miter;opacity:0.8;font-family:&quot;Anthropic Sans&quot;, -apple-system, BlinkMacSystemFont, &quot;Segoe UI&quot;, sans-serif;font-size:16px;font-weight:400;text-anchor:start;dominant-baseline:auto"/>

  <!-- Left gyrus 2 — mid outer bump -->
  <path d="M 264 146 C 254 140, 244 143, 241 153 C 238 163, 244 174, 254 177 C 256 168, 260 158, 264 146 Z" fill="#93c5fd" opacity="0.8" style="fill:rgb(147, 197, 253);stroke:none;color:rgb(255, 255, 255);stroke-width:1px;stroke-linecap:butt;stroke-linejoin:miter;opacity:0.8;font-family:&quot;Anthropic Sans&quot;, -apple-system, BlinkMacSystemFont, &quot;Segoe UI&quot;, sans-serif;font-size:16px;font-weight:400;text-anchor:start;dominant-baseline:auto"/>

  <!-- Left gyrus 3 — lower bump -->
  <path d="M 258 175 C 248 178, 242 188, 246 198 C 250 207, 260 210, 268 206 C 262 198, 258 187, 258 175 Z" fill="#93c5fd" opacity="0.8" style="fill:rgb(147, 197, 253);stroke:none;color:rgb(255, 255, 255);stroke-width:1px;stroke-linecap:butt;stroke-linejoin:miter;opacity:0.8;font-family:&quot;Anthropic Sans&quot;, -apple-system, BlinkMacSystemFont, &quot;Segoe UI&quot;, sans-serif;font-size:16px;font-weight:400;text-anchor:start;dominant-baseline:auto"/>

  <!-- Right gyrus 1 -->
  <path d="M 396 105 C 402 95, 412 93, 418 100 C 424 108, 422 120, 414 126 C 408 120, 400 116, 396 105 Z" fill="#93c5fd" opacity="0.8" style="fill:rgb(147, 197, 253);stroke:none;color:rgb(255, 255, 255);stroke-width:1px;stroke-linecap:butt;stroke-linejoin:miter;opacity:0.8;font-family:&quot;Anthropic Sans&quot;, -apple-system, BlinkMacSystemFont, &quot;Segoe UI&quot;, sans-serif;font-size:16px;font-weight:400;text-anchor:start;dominant-baseline:auto"/>

  <!-- Right gyrus 2 -->
  <path d="M 416 146 C 426 140, 436 143, 439 153 C 442 163, 436 174, 426 177 C 424 168, 420 158, 416 146 Z" fill="#93c5fd" opacity="0.8" style="fill:rgb(147, 197, 253);stroke:none;color:rgb(255, 255, 255);stroke-width:1px;stroke-linecap:butt;stroke-linejoin:miter;opacity:0.8;font-family:&quot;Anthropic Sans&quot;, -apple-system, BlinkMacSystemFont, &quot;Segoe UI&quot;, sans-serif;font-size:16px;font-weight:400;text-anchor:start;dominant-baseline:auto"/>

  <!-- Right gyrus 3 -->
  <path d="M 422 175 C 432 178, 438 188, 434 198 C 430 207, 420 210, 412 206 C 418 198, 422 187, 422 175 Z" fill="#93c5fd" opacity="0.8" style="fill:rgb(147, 197, 253);stroke:none;color:rgb(255, 255, 255);stroke-width:1px;stroke-linecap:butt;stroke-linejoin:miter;opacity:0.8;font-family:&quot;Anthropic Sans&quot;, -apple-system, BlinkMacSystemFont, &quot;Segoe UI&quot;, sans-serif;font-size:16px;font-weight:400;text-anchor:start;dominant-baseline:auto"/>

  <!-- Sulci (groove lines) left side -->
  <path d="M 284 105 C 287 115, 282 126, 274 132 C 268 137, 264 144, 264 146" fill="none" stroke="#1d4ed8" stroke-width="2.5" stroke-linecap="round" style="fill:none;stroke:rgb(29, 78, 216);color:rgb(255, 255, 255);stroke-width:2.5px;stroke-linecap:round;stroke-linejoin:miter;opacity:1;font-family:&quot;Anthropic Sans&quot;, -apple-system, BlinkMacSystemFont, &quot;Segoe UI&quot;, sans-serif;font-size:16px;font-weight:400;text-anchor:start;dominant-baseline:auto"/>
  <path d="M 264 146 C 266 155, 264 165, 260 173 C 258 174, 258 175, 258 175" fill="none" stroke="#1d4ed8" stroke-width="2.5" stroke-linecap="round" style="fill:none;stroke:rgb(29, 78, 216);color:rgb(255, 255, 255);stroke-width:2.5px;stroke-linecap:round;stroke-linejoin:miter;opacity:1;font-family:&quot;Anthropic Sans&quot;, -apple-system, BlinkMacSystemFont, &quot;Segoe UI&quot;, sans-serif;font-size:16px;font-weight:400;text-anchor:start;dominant-baseline:auto"/>
  <path d="M 258 175 C 260 185, 262 196, 268 204" fill="none" stroke="#1d4ed8" stroke-width="2.5" stroke-linecap="round" style="fill:none;stroke:rgb(29, 78, 216);color:rgb(255, 255, 255);stroke-width:2.5px;stroke-linecap:round;stroke-linejoin:miter;opacity:1;font-family:&quot;Anthropic Sans&quot;, -apple-system, BlinkMacSystemFont, &quot;Segoe UI&quot;, sans-serif;font-size:16px;font-weight:400;text-anchor:start;dominant-baseline:auto"/>

  <!-- Inner sulci left -->
  <path d="M 300 96 C 295 108, 292 122, 296 136" fill="none" stroke="#60a5fa" stroke-width="1.8" stroke-linecap="round" opacity="0.7" style="fill:none;stroke:rgb(96, 165, 250);color:rgb(255, 255, 255);stroke-width:1.8px;stroke-linecap:round;stroke-linejoin:miter;opacity:0.7;font-family:&quot;Anthropic Sans&quot;, -apple-system, BlinkMacSystemFont, &quot;Segoe UI&quot;, sans-serif;font-size:16px;font-weight:400;text-anchor:start;dominant-baseline:auto"/>
  <path d="M 275 128 C 282 138, 286 150, 282 163" fill="none" stroke="#60a5fa" stroke-width="1.8" stroke-linecap="round" opacity="0.7" style="fill:none;stroke:rgb(96, 165, 250);color:rgb(255, 255, 255);stroke-width:1.8px;stroke-linecap:round;stroke-linejoin:miter;opacity:0.7;font-family:&quot;Anthropic Sans&quot;, -apple-system, BlinkMacSystemFont, &quot;Segoe UI&quot;, sans-serif;font-size:16px;font-weight:400;text-anchor:start;dominant-baseline:auto"/>
  <path d="M 270 168 C 278 176, 282 188, 279 200" fill="none" stroke="#60a5fa" stroke-width="1.8" stroke-linecap="round" opacity="0.7" style="fill:none;stroke:rgb(96, 165, 250);color:rgb(255, 255, 255);stroke-width:1.8px;stroke-linecap:round;stroke-linejoin:miter;opacity:0.7;font-family:&quot;Anthropic Sans&quot;, -apple-system, BlinkMacSystemFont, &quot;Segoe UI&quot;, sans-serif;font-size:16px;font-weight:400;text-anchor:start;dominant-baseline:auto"/>
  <path d="M 292 200 C 298 208, 308 214, 318 215" fill="none" stroke="#60a5fa" stroke-width="1.8" stroke-linecap="round" opacity="0.7" style="fill:none;stroke:rgb(96, 165, 250);color:rgb(255, 255, 255);stroke-width:1.8px;stroke-linecap:round;stroke-linejoin:miter;opacity:0.7;font-family:&quot;Anthropic Sans&quot;, -apple-system, BlinkMacSystemFont, &quot;Segoe UI&quot;, sans-serif;font-size:16px;font-weight:400;text-anchor:start;dominant-baseline:auto"/>

  <!-- Sulci right side -->
  <path d="M 396 105 C 393 115, 398 126, 406 132 C 412 137, 416 144, 416 146" fill="none" stroke="#1d4ed8" stroke-width="2.5" stroke-linecap="round" style="fill:none;stroke:rgb(29, 78, 216);color:rgb(255, 255, 255);stroke-width:2.5px;stroke-linecap:round;stroke-linejoin:miter;opacity:1;font-family:&quot;Anthropic Sans&quot;, -apple-system, BlinkMacSystemFont, &quot;Segoe UI&quot;, sans-serif;font-size:16px;font-weight:400;text-anchor:start;dominant-baseline:auto"/>
  <path d="M 416 146 C 414 155, 416 165, 420 173 C 422 174, 422 175, 422 175" fill="none" stroke="#1d4ed8" stroke-width="2.5" stroke-linecap="round" style="fill:none;stroke:rgb(29, 78, 216);color:rgb(255, 255, 255);stroke-width:2.5px;stroke-linecap:round;stroke-linejoin:miter;opacity:1;font-family:&quot;Anthropic Sans&quot;, -apple-system, BlinkMacSystemFont, &quot;Segoe UI&quot;, sans-serif;font-size:16px;font-weight:400;text-anchor:start;dominant-baseline:auto"/>
  <path d="M 422 175 C 420 185, 418 196, 412 204" fill="none" stroke="#1d4ed8" stroke-width="2.5" stroke-linecap="round" style="fill:none;stroke:rgb(29, 78, 216);color:rgb(255, 255, 255);stroke-width:2.5px;stroke-linecap:round;stroke-linejoin:miter;opacity:1;font-family:&quot;Anthropic Sans&quot;, -apple-system, BlinkMacSystemFont, &quot;Segoe UI&quot;, sans-serif;font-size:16px;font-weight:400;text-anchor:start;dominant-baseline:auto"/>

  <!-- Inner sulci right -->
  <path d="M 380 96 C 385 108, 388 122, 384 136" fill="none" stroke="#60a5fa" stroke-width="1.8" stroke-linecap="round" opacity="0.7" style="fill:none;stroke:rgb(96, 165, 250);color:rgb(255, 255, 255);stroke-width:1.8px;stroke-linecap:round;stroke-linejoin:miter;opacity:0.7;font-family:&quot;Anthropic Sans&quot;, -apple-system, BlinkMacSystemFont, &quot;Segoe UI&quot;, sans-serif;font-size:16px;font-weight:400;text-anchor:start;dominant-baseline:auto"/>
  <path d="M 405 128 C 398 138, 394 150, 398 163" fill="none" stroke="#60a5fa" stroke-width="1.8" stroke-linecap="round" opacity="0.7" style="fill:none;stroke:rgb(96, 165, 250);color:rgb(255, 255, 255);stroke-width:1.8px;stroke-linecap:round;stroke-linejoin:miter;opacity:0.7;font-family:&quot;Anthropic Sans&quot;, -apple-system, BlinkMacSystemFont, &quot;Segoe UI&quot;, sans-serif;font-size:16px;font-weight:400;text-anchor:start;dominant-baseline:auto"/>
  <path d="M 410 168 C 402 176, 398 188, 401 200" fill="none" stroke="#60a5fa" stroke-width="1.8" stroke-linecap="round" opacity="0.7" style="fill:none;stroke:rgb(96, 165, 250);color:rgb(255, 255, 255);stroke-width:1.8px;stroke-linecap:round;stroke-linejoin:miter;opacity:0.7;font-family:&quot;Anthropic Sans&quot;, -apple-system, BlinkMacSystemFont, &quot;Segoe UI&quot;, sans-serif;font-size:16px;font-weight:400;text-anchor:start;dominant-baseline:auto"/>
  <path d="M 388 200 C 382 208, 372 214, 362 215" fill="none" stroke="#60a5fa" stroke-width="1.8" stroke-linecap="round" opacity="0.7" style="fill:none;stroke:rgb(96, 165, 250);color:rgb(255, 255, 255);stroke-width:1.8px;stroke-linecap:round;stroke-linejoin:miter;opacity:0.7;font-family:&quot;Anthropic Sans&quot;, -apple-system, BlinkMacSystemFont, &quot;Segoe UI&quot;, sans-serif;font-size:16px;font-weight:400;text-anchor:start;dominant-baseline:auto"/>

  <!-- Central fissure -->
  <path d="M 340 86 C 338 110, 338 150, 340 185 C 341 200, 340 215, 340 227" fill="none" stroke="#1d4ed8" stroke-width="2.5" stroke-linecap="round" opacity="0.8" style="fill:none;stroke:rgb(29, 78, 216);color:rgb(255, 255, 255);stroke-width:2.5px;stroke-linecap:round;stroke-linejoin:miter;opacity:0.8;font-family:&quot;Anthropic Sans&quot;, -apple-system, BlinkMacSystemFont, &quot;Segoe UI&quot;, sans-serif;font-size:16px;font-weight:400;text-anchor:start;dominant-baseline:auto"/>

  <!-- Top central sulcus -->
  <path d="M 322 90 C 318 102, 316 116, 320 130" fill="none" stroke="#60a5fa" stroke-width="1.8" stroke-linecap="round" opacity="0.6" style="fill:none;stroke:rgb(96, 165, 250);color:rgb(255, 255, 255);stroke-width:1.8px;stroke-linecap:round;stroke-linejoin:miter;opacity:0.6;font-family:&quot;Anthropic Sans&quot;, -apple-system, BlinkMacSystemFont, &quot;Segoe UI&quot;, sans-serif;font-size:16px;font-weight:400;text-anchor:start;dominant-baseline:auto"/>
  <path d="M 358 90 C 362 102, 364 116, 360 130" fill="none" stroke="#60a5fa" stroke-width="1.8" stroke-linecap="round" opacity="0.6" style="fill:none;stroke:rgb(96, 165, 250);color:rgb(255, 255, 255);stroke-width:1.8px;stroke-linecap:round;stroke-linejoin:miter;opacity:0.6;font-family:&quot;Anthropic Sans&quot;, -apple-system, BlinkMacSystemFont, &quot;Segoe UI&quot;, sans-serif;font-size:16px;font-weight:400;text-anchor:start;dominant-baseline:auto"/>

  <!-- Glowing neural dots -->
  <circle cx="304" cy="140" r="3" fill="#2563eb" style="fill:rgb(37, 99, 235);stroke:none;color:rgb(255, 255, 255);stroke-width:1px;stroke-linecap:butt;stroke-linejoin:miter;opacity:1;font-family:&quot;Anthropic Sans&quot;, -apple-system, BlinkMacSystemFont, &quot;Segoe UI&quot;, sans-serif;font-size:16px;font-weight:400;text-anchor:start;dominant-baseline:auto"/>
  <circle cx="304" cy="140" r="5" fill="#60a5fa" opacity="0.4" style="fill:rgb(96, 165, 250);stroke:none;color:rgb(255, 255, 255);stroke-width:1px;stroke-linecap:butt;stroke-linejoin:miter;opacity:0.4;font-family:&quot;Anthropic Sans&quot;, -apple-system, BlinkMacSystemFont, &quot;Segoe UI&quot;, sans-serif;font-size:16px;font-weight:400;text-anchor:start;dominant-baseline:auto"/>
  <circle cx="290" cy="168" r="3" fill="#2563eb" style="fill:rgb(37, 99, 235);stroke:none;color:rgb(255, 255, 255);stroke-width:1px;stroke-linecap:butt;stroke-linejoin:miter;opacity:1;font-family:&quot;Anthropic Sans&quot;, -apple-system, BlinkMacSystemFont, &quot;Segoe UI&quot;, sans-serif;font-size:16px;font-weight:400;text-anchor:start;dominant-baseline:auto"/>
  <circle cx="290" cy="168" r="5" fill="#60a5fa" opacity="0.4" style="fill:rgb(96, 165, 250);stroke:none;color:rgb(255, 255, 255);stroke-width:1px;stroke-linecap:butt;stroke-linejoin:miter;opacity:0.4;font-family:&quot;Anthropic Sans&quot;, -apple-system, BlinkMacSystemFont, &quot;Segoe UI&quot;, sans-serif;font-size:16px;font-weight:400;text-anchor:start;dominant-baseline:auto"/>
  <circle cx="376" cy="140" r="3" fill="#2563eb" style="fill:rgb(37, 99, 235);stroke:none;color:rgb(255, 255, 255);stroke-width:1px;stroke-linecap:butt;stroke-linejoin:miter;opacity:1;font-family:&quot;Anthropic Sans&quot;, -apple-system, BlinkMacSystemFont, &quot;Segoe UI&quot;, sans-serif;font-size:16px;font-weight:400;text-anchor:start;dominant-baseline:auto"/>
  <circle cx="376" cy="140" r="5" fill="#60a5fa" opacity="0.4" style="fill:rgb(96, 165, 250);stroke:none;color:rgb(255, 255, 255);stroke-width:1px;stroke-linecap:butt;stroke-linejoin:miter;opacity:0.4;font-family:&quot;Anthropic Sans&quot;, -apple-system, BlinkMacSystemFont, &quot;Segoe UI&quot;, sans-serif;font-size:16px;font-weight:400;text-anchor:start;dominant-baseline:auto"/>
  <circle cx="390" cy="168" r="3" fill="#2563eb" style="fill:rgb(37, 99, 235);stroke:none;color:rgb(255, 255, 255);stroke-width:1px;stroke-linecap:butt;stroke-linejoin:miter;opacity:1;font-family:&quot;Anthropic Sans&quot;, -apple-system, BlinkMacSystemFont, &quot;Segoe UI&quot;, sans-serif;font-size:16px;font-weight:400;text-anchor:start;dominant-baseline:auto"/>
  <circle cx="390" cy="168" r="5" fill="#60a5fa" opacity="0.4" style="fill:rgb(96, 165, 250);stroke:none;color:rgb(255, 255, 255);stroke-width:1px;stroke-linecap:butt;stroke-linejoin:miter;opacity:0.4;font-family:&quot;Anthropic Sans&quot;, -apple-system, BlinkMacSystemFont, &quot;Segoe UI&quot;, sans-serif;font-size:16px;font-weight:400;text-anchor:start;dominant-baseline:auto"/>
  <circle cx="340" cy="155" r="3" fill="#2563eb" style="fill:rgb(37, 99, 235);stroke:none;color:rgb(255, 255, 255);stroke-width:1px;stroke-linecap:butt;stroke-linejoin:miter;opacity:1;font-family:&quot;Anthropic Sans&quot;, -apple-system, BlinkMacSystemFont, &quot;Segoe UI&quot;, sans-serif;font-size:16px;font-weight:400;text-anchor:start;dominant-baseline:auto"/>
  <circle cx="340" cy="155" r="5" fill="#60a5fa" opacity="0.4" style="fill:rgb(96, 165, 250);stroke:none;color:rgb(255, 255, 255);stroke-width:1px;stroke-linecap:butt;stroke-linejoin:miter;opacity:0.4;font-family:&quot;Anthropic Sans&quot;, -apple-system, BlinkMacSystemFont, &quot;Segoe UI&quot;, sans-serif;font-size:16px;font-weight:400;text-anchor:start;dominant-baseline:auto"/>

  <!-- Text -->
  <text x="340" y="296" text-anchor="middle" font-family="'Inter', 'Helvetica Neue', sans-serif" font-size="28" font-weight="700" fill="#1e3a8a" letter-spacing="-0.5" style="fill:rgb(30, 58, 138);stroke:none;color:rgb(255, 255, 255);stroke-width:1px;stroke-linecap:butt;stroke-linejoin:miter;opacity:1;font-family:Inter, &quot;Helvetica Neue&quot;, sans-serif;font-size:28px;font-weight:700;text-anchor:middle;dominant-baseline:auto">MindMate</text>
  <text x="340" y="318" text-anchor="middle" font-family="'Inter', 'Helvetica Neue', sans-serif" font-size="13" font-weight="400" fill="#64748b" letter-spacing="0.5" style="fill:rgb(100, 116, 139);stroke:none;color:rgb(255, 255, 255);stroke-width:1px;stroke-linecap:butt;stroke-linejoin:miter;opacity:1;font-family:Inter, &quot;Helvetica Neue&quot;, sans-serif;font-size:13px;font-weight:400;text-anchor:middle;dominant-baseline:auto">Your mental wellness companion</text>
</svg>